<svg width="21" height="20" viewBox="0 0 21 20" fill="none" xmlns="http://www.w3.org/2000/svg">
<path fill-rule="evenodd" clip-rule="evenodd" d="M18.8333 10C18.8333 14.6024 15.1023 18.3334 10.5 18.3334C5.89761 18.3334 2.16666 14.6024 2.16666 10C2.16666 5.39765 5.89761 1.66669 10.5 1.66669C15.1023 1.66669 18.8333 5.39765 18.8333 10ZM7.97468 7.47473C8.21876 7.23065 8.61448 7.23065 8.85857 7.47473L10.5 9.1161L12.1413 7.47475C12.3854 7.23067 12.7812 7.23067 13.0252 7.47475C13.2693 7.71882 13.2693 8.11455 13.0252 8.3586L11.3838 10L13.0252 11.6414C13.2693 11.8854 13.2693 12.2812 13.0252 12.5253C12.7812 12.7694 12.3854 12.7694 12.1413 12.5253L10.5 10.8839L8.85857 12.5253C8.61451 12.7694 8.21877 12.7694 7.9747 12.5253C7.73062 12.2812 7.73062 11.8854 7.9747 11.6414L9.61607 10L7.97468 8.3586C7.7306 8.11454 7.7306 7.7188 7.97468 7.47473Z" fill="#1F0A54"/>
</svg>
