<svg width="16" height="16" viewBox="0 0 16 16" fill="none" xmlns="http://www.w3.org/2000/svg">
<path d="M15.1877 5.9116C15.1319 5.74496 14.9875 5.62355 14.8138 5.59684L10.2025 4.8923L8.13641 0.491211C8.05907 0.32668 7.89359 0.22168 7.71194 0.22168C7.53029 0.22168 7.36505 0.32668 7.28747 0.491211L5.22136 4.8923L0.610046 5.59707C0.436366 5.62355 0.292218 5.74519 0.2362 5.91184C0.180416 6.07824 0.222371 6.26199 0.34519 6.38785L3.6955 9.82309L2.90375 14.6756C2.87468 14.8528 2.94945 15.0311 3.09641 15.1343C3.17704 15.1912 3.2715 15.22 3.36619 15.22C3.44401 15.22 3.52229 15.2004 3.59308 15.1614L7.71171 12.8836L11.8303 15.1614C11.9011 15.2004 11.9794 15.22 12.0572 15.22C12.1519 15.22 12.2466 15.1912 12.327 15.1343C12.474 15.0311 12.5487 14.8528 12.5197 14.6756L11.7279 9.82309L15.0782 6.38785C15.2013 6.26176 15.2435 6.07801 15.1877 5.9116Z" fill="#F8B60C"/>
</svg>
