<svg width="48" height="49" viewBox="0 0 48 49" fill="none" xmlns="http://www.w3.org/2000/svg">
<path d="M47.2118 25.2524C47.2118 23.2859 47.0523 21.8509 46.7069 20.3627H24.251V29.2386H37.4321C37.1665 31.4444 35.7314 34.7663 32.5423 36.9985L32.4976 37.2957L39.5978 42.7961L40.0897 42.8452C44.6074 38.6728 47.2118 32.534 47.2118 25.2524Z" fill="#4285F4"/>
<path d="M24.2512 48.6383C30.7088 48.6383 36.1301 46.5122 40.0899 42.845L32.5425 36.9983C30.5229 38.4068 27.8122 39.3901 24.2512 39.3901C17.9264 39.3901 12.5582 35.218 10.6446 29.4512L10.3642 29.475L2.98132 35.1886L2.88477 35.457C6.81783 43.27 14.8967 48.6383 24.2512 48.6383Z" fill="#34A853"/>
<path d="M10.6445 29.4513C10.1396 27.9631 9.84739 26.3685 9.84739 24.7209C9.84739 23.0732 10.1396 21.4787 10.618 19.9905L10.6046 19.6736L3.12922 13.8682L2.88464 13.9845C1.26363 17.2267 0.333496 20.8676 0.333496 24.7209C0.333496 28.5743 1.26363 32.215 2.88464 35.4572L10.6445 29.4513Z" fill="#FBBC05"/>
<path d="M24.2512 10.0514C28.7423 10.0514 31.7718 11.9914 33.4992 13.6126L40.2493 7.02191C36.1037 3.16854 30.7088 0.803345 24.2512 0.803345C14.8967 0.803345 6.81783 6.17147 2.88477 13.9845L10.6181 19.9905C12.5582 14.2237 17.9264 10.0514 24.2512 10.0514Z" fill="#EB4335"/>
</svg>
